<?xml version="1.0" encoding="iso-8859-1"?>
<!-- Generator: Adobe Illustrator 16.0.0, SVG Export Plug-In . SVG Version: 6.00 Build 0)  -->
<!DOCTYPE svg PUBLIC "-//W3C//DTD SVG 1.1//EN" "http://www.w3.org/Graphics/SVG/1.1/DTD/svg11.dtd">
<svg version="1.1" id="Capa_1" xmlns="http://www.w3.org/2000/svg" xmlns:xlink="http://www.w3.org/1999/xlink" x="0px" y="0px"
	 width="374.704px" height="374.703px" viewBox="0 0 374.704 374.703" style="enable-background:new 0 0 374.704 374.703;"
	 xml:space="preserve">
<g>
	<g>
		<path d="M302.421,241.456h-9.686V115.479v-29.61c0-1.338-1.085-2.423-2.423-2.423h-13.67c-1.339,0-2.423,1.085-2.423,2.423v11.575
			h-2.846V85.869c0-1.338-1.085-2.423-2.424-2.423h-13.67c-1.338,0-2.422,1.085-2.422,2.423v11.575h-0.905V61.643V38.327
			c0-1.338-1.085-2.423-2.423-2.423h-11.306c-1.339,0-2.423,1.085-2.423,2.423v7.3h-2.692v-7.3c0-1.338-1.084-2.423-2.423-2.423
			h-11.306c-1.338,0-2.423,1.085-2.423,2.423v7.3h-2.69v-7.3c0-1.338-1.084-2.423-2.423-2.423H200.54
			c-1.339,0-2.424,1.085-2.424,2.423v7.3h-2.69v-7.3c0-1.338-1.085-2.423-2.423-2.423h-3.23V22.798h28.668
			c1.338,0,2.423-1.085,2.423-2.423V2.423c0-1.338-1.085-2.423-2.423-2.423h-31.09c-1.338,0-2.423,1.085-2.423,2.423v17.952v15.529
			h-3.23c-1.338,0-2.423,1.085-2.423,2.423v7.3h-2.692v-7.3c0-1.338-1.084-2.423-2.422-2.423h-11.306
			c-1.338,0-2.422,1.085-2.422,2.423v7.3h-2.692v-7.3c0-1.338-1.085-2.423-2.423-2.423h-11.306c-1.338,0-2.423,1.085-2.423,2.423
			v7.3h-2.692v-7.3c0-1.338-1.084-2.423-2.422-2.423h-11.306c-1.338,0-2.422,1.085-2.422,2.423v23.316v35.801h-0.904V85.869
			c0-1.338-1.085-2.423-2.423-2.423h-13.67c-1.338,0-2.422,1.085-2.422,2.423v11.575h-2.846V85.869c0-1.338-1.085-2.423-2.423-2.423
			h-13.67c-1.338,0-2.422,1.085-2.422,2.423v29.61v125.978h-9.685c-1.338,0-2.423,1.085-2.423,2.423v13.396
			c0,1.34,1.085,2.424,2.423,2.424h9.685v112.582c0,1.338,1.084,2.422,2.422,2.422h205.926c1.338,0,2.423-1.084,2.423-2.422V259.698
			h9.686c1.339,0,2.423-1.084,2.423-2.423v-13.396C304.843,242.541,303.759,241.456,302.421,241.456z M216.018,17.952h-26.245V4.846
			h26.245V17.952z M226.228,83.446h-13.67c-1.338,0-2.422,1.085-2.422,2.423v11.575h-2.847V85.869c0-1.338-1.084-2.423-2.424-2.423
			h-13.67c-1.339,0-2.423,1.085-2.423,2.423v11.575h-2.846V85.869c0-1.338-1.084-2.423-2.422-2.423h-13.67
			c-1.338,0-2.423,1.085-2.423,2.423v11.575h-2.846V85.869c0-1.338-1.085-2.423-2.423-2.423h-13.67
			c-1.338,0-2.423,1.085-2.423,2.423v11.575h-2.846V85.869c0-1.338-1.085-2.423-2.423-2.423h-13.19V64.065h119.518v19.381h-13.188
			c-1.338,0-2.422,1.085-2.422,2.423v11.575h-2.849V85.869C228.651,84.531,227.567,83.446,226.228,83.446z M127.591,40.749h6.46
			v7.299c0,1.338,1.084,2.423,2.423,2.423h7.537c1.338,0,2.422-1.085,2.422-2.423v-7.299h6.46v7.299
			c0,1.338,1.085,2.423,2.423,2.423h7.537c1.338,0,2.423-1.085,2.423-2.423v-7.299h6.46v7.299c0,1.338,1.085,2.423,2.423,2.423
			h7.537c1.338,0,2.423-1.085,2.423-2.423v-7.299h6.461v7.299c0,1.338,1.084,2.423,2.422,2.423h7.537
			c1.339,0,2.423-1.085,2.423-2.423v-7.299h6.46v7.299c0,1.338,1.085,2.423,2.423,2.423h7.536c1.339,0,2.423-1.085,2.423-2.423
			v-7.299h6.46v7.299c0,1.338,1.085,2.423,2.423,2.423h7.538c1.338,0,2.423-1.085,2.423-2.423v-7.299h6.46V59.22H127.591V40.749z
			 M86.81,88.291h8.825v11.575c0,1.338,1.084,2.423,2.422,2.423h7.691c1.338,0,2.423-1.085,2.423-2.423V88.291h8.825v11.575
			c0,1.338,1.084,2.423,2.422,2.423h7.691c1.338,0,2.423-1.085,2.423-2.423V88.291h8.825v11.575c0,1.338,1.084,2.423,2.422,2.423
			h7.692c1.338,0,2.422-1.085,2.422-2.423V88.291h8.825v11.575c0,1.338,1.084,2.423,2.422,2.423h7.692
			c1.338,0,2.422-1.085,2.422-2.423V88.291h8.825v11.575c0,1.338,1.085,2.423,2.423,2.423h7.69c1.34,0,2.424-1.085,2.424-2.423
			V88.291h8.825v11.575c0,1.338,1.084,2.423,2.422,2.423h7.691c1.339,0,2.423-1.085,2.423-2.423V88.291h8.825v11.575
			c0,1.338,1.084,2.423,2.422,2.423h7.692c1.339,0,2.423-1.085,2.423-2.423V88.291h8.823v11.575c0,1.338,1.085,2.423,2.424,2.423
			h7.69c1.339,0,2.423-1.085,2.423-2.423V88.291h8.824v11.575c0,1.338,1.084,2.423,2.423,2.423h7.691
			c1.338,0,2.423-1.085,2.423-2.423V88.291h8.824v24.765H86.81V88.291z M86.81,117.902h38.358h124.363h38.358v123.555H86.81V117.902
			z M287.89,369.857H86.81V259.698h201.08V369.857z M299.999,254.854H74.702v-8.551h225.295L299.999,254.854L299.999,254.854z"/>
		<path d="M111.037,311.715h16.151c1.338,0,2.423-1.086,2.423-2.424v-27.457c0-1.338-1.085-2.423-2.423-2.423h-16.151
			c-1.338,0-2.423,1.085-2.423,2.423v27.457C108.614,310.629,109.699,311.715,111.037,311.715z M113.459,284.258h11.306v22.609
			h-11.306V284.258z"/>
		<path d="M209.558,175.642h-16.151c-1.338,0-2.423,1.084-2.423,2.422v27.458c0,1.338,1.085,2.422,2.423,2.422h16.151
			c1.338,0,2.422-1.084,2.422-2.422v-27.458C211.98,176.726,210.896,175.642,209.558,175.642z M207.135,203.098h-11.305v-22.61
			h11.306L207.135,203.098L207.135,203.098z"/>
		<path d="M127.188,143.744h-16.151c-1.338,0-2.423,1.085-2.423,2.423v27.456c0,1.338,1.085,2.423,2.423,2.423h16.151
			c1.338,0,2.423-1.085,2.423-2.423v-27.456C129.61,144.829,128.526,143.744,127.188,143.744z M124.765,171.201h-11.306v-22.612
			h11.306V171.201z"/>
		<path d="M259.626,175.642h-16.15c-1.339,0-2.423,1.084-2.423,2.422v27.458c0,1.338,1.084,2.422,2.423,2.422h16.15
			c1.339,0,2.423-1.084,2.423-2.422v-27.458C262.048,176.726,260.965,175.642,259.626,175.642z M257.204,203.098h-11.306v-22.61
			h11.306V203.098z"/>
	</g>
</g>
<g>
</g>
<g>
</g>
<g>
</g>
<g>
</g>
<g>
</g>
<g>
</g>
<g>
</g>
<g>
</g>
<g>
</g>
<g>
</g>
<g>
</g>
<g>
</g>
<g>
</g>
<g>
</g>
<g>
</g>
</svg>
